<svg width="55" height="55" viewBox="0 0 55 55" fill="none" xmlns="http://www.w3.org/2000/svg">
<path d="M27.5 1C28.364 1 29.2379 1.03927 30.1019 1.12764C30.9659 1.21601 31.8201 1.34365 32.6743 1.51056C33.5285 1.67747 34.3631 1.89348 35.1977 2.13894C36.0322 2.39422 36.8472 2.67896 37.6425 3.01278C38.4476 3.34661 39.2331 3.71971 39.9989 4.12227C40.7647 4.53464 41.5109 4.97647 42.2277 5.45758C42.9542 5.93868 43.6415 6.45906 44.319 7.00889C44.9867 7.55873 45.6347 8.13801 46.2434 8.75658C46.862 9.36532 47.4413 10.0133 47.9911 10.681C48.5409 11.3486 49.0613 12.0458 49.5424 12.7723C50.0235 13.4989 50.4752 14.2353 50.8777 15.0011C51.2901 15.767 51.6534 16.5524 51.9872 17.3575C52.321 18.1627 52.6156 18.9776 52.8611 19.8023C53.1163 20.6369 53.3225 21.4715 53.4894 22.3257C53.6564 23.1799 53.784 24.0341 53.8724 24.8981C53.9607 25.7621 54 26.6262 54 27.5C54 28.3738 53.9607 29.2379 53.8724 30.1019C53.784 30.9659 53.6564 31.8201 53.4894 32.6743C53.3225 33.5285 53.1065 34.3631 52.8611 35.1977C52.6058 36.0322 52.321 36.8472 51.9872 37.6425C51.6534 38.4476 51.2803 39.2331 50.8777 39.9989C50.4654 40.7647 50.0235 41.5109 49.5424 42.2277C49.0613 42.9542 48.5409 43.6514 47.9911 44.319C47.4413 44.9867 46.862 45.6347 46.2434 46.2434C45.6249 46.8522 44.9867 47.4413 44.319 47.9911C43.6514 48.5409 42.9542 49.0613 42.2277 49.5424C41.5011 50.0235 40.7647 50.4752 39.9989 50.8777C39.2331 51.2901 38.4476 51.6534 37.6425 51.9872C36.8373 52.321 36.0224 52.6156 35.1977 52.8611C34.3631 53.1163 33.5285 53.3225 32.6743 53.4894C31.8201 53.6564 30.9659 53.784 30.1019 53.8724C29.2379 53.9607 28.3738 54 27.5 54C26.6262 54 25.7621 53.9607 24.8981 53.8724C24.0341 53.784 23.1799 53.6564 22.3257 53.4894C21.4715 53.3225 20.6369 53.1065 19.8023 52.8611C18.9678 52.6058 18.1528 52.321 17.3575 51.9872C16.5524 51.6534 15.7669 51.2803 15.0011 50.8777C14.2353 50.4654 13.4891 50.0235 12.7723 49.5424C12.0458 49.0613 11.3585 48.5409 10.681 47.9911C10.0133 47.4413 9.36532 46.862 8.75658 46.2434C8.13802 45.6347 7.55872 44.9867 7.00889 44.319C6.45905 43.6514 5.93868 42.9542 5.45758 42.2277C4.97647 41.5011 4.52482 40.7647 4.12227 39.9989C3.70989 39.2331 3.34661 38.4476 3.01278 37.6425C2.67895 36.8373 2.3844 36.0224 2.13894 35.1977C1.88366 34.3631 1.67747 33.5285 1.51056 32.6743C1.34364 31.8201 1.216 30.9659 1.12764 30.1019C1.03927 29.2379 1 28.3738 1 27.5C1 26.6262 1.03927 25.7621 1.12764 24.8981C1.216 24.0341 1.34364 23.1799 1.51056 22.3257C1.67747 21.4715 1.89348 20.6369 2.13894 19.8023C2.39422 18.9678 2.67895 18.1528 3.01278 17.3575C3.34661 16.5524 3.71971 15.767 4.12227 15.0011C4.53464 14.2353 4.97647 13.4891 5.45758 12.7723C5.93868 12.0458 6.45905 11.3486 7.00889 10.681C7.55872 10.0133 8.13802 9.36532 8.75658 8.75658C9.37514 8.14783 10.0133 7.55873 10.681 7.00889C11.3486 6.45906 12.0458 5.93868 12.7723 5.45758C13.4989 4.97647 14.2353 4.52482 15.0011 4.12227C15.7669 3.70989 16.5524 3.34661 17.3575 3.01278C18.1627 2.67896 18.9776 2.3844 19.8023 2.13894C20.6369 1.88366 21.4715 1.67747 22.3257 1.51056C23.1799 1.34365 24.0341 1.21601 24.8981 1.12764C25.7621 1.03927 26.6262 1 27.5 1Z" fill="#FFD800"/>
<path d="M27.5 1C28.364 1 29.2379 1.03927 30.1019 1.12764C30.9659 1.21601 31.8201 1.34365 32.6743 1.51056C33.5285 1.67747 34.3631 1.89348 35.1977 2.13894C36.0322 2.39422 36.8472 2.67896 37.6425 3.01278C38.4476 3.34661 39.2331 3.71971 39.9989 4.12227C40.7647 4.53464 41.5109 4.97647 42.2277 5.45758C42.9444 5.93868 43.6415 6.45906 44.319 7.00889C44.9965 7.55873 45.6347 8.13801 46.2434 8.75658C46.862 9.37514 47.4413 10.0133 47.9911 10.681C48.5409 11.3486 49.0613 12.0458 49.5424 12.7723C50.0235 13.4989 50.4752 14.2353 50.8777 15.0011C51.2901 15.767 51.6534 16.5524 51.9872 17.3575C52.321 18.1627 52.6156 18.9776 52.8611 19.8023C53.1163 20.6369 53.3225 21.4715 53.4894 22.3257C53.6564 23.1799 53.784 24.0341 53.8724 24.8981C53.9607 25.7621 54 26.6262 54 27.5C54 28.3738 53.9607 29.2379 53.8724 30.1019C53.784 30.9659 53.6564 31.8201 53.4894 32.6743C53.3225 33.5285 53.1065 34.3631 52.8611 35.1977C52.6058 36.0322 52.321 36.8472 51.9872 37.6425C51.6534 38.4476 51.2803 39.2331 50.8777 39.9989C50.4654 40.7647 50.0235 41.5109 49.5424 42.2277C49.0613 42.9542 48.5409 43.6415 47.9911 44.319C47.4413 44.9867 46.862 45.6347 46.2434 46.2434C45.6249 46.862 44.9867 47.4413 44.319 47.9911C43.6514 48.5409 42.9542 49.0613 42.2277 49.5424C41.5011 50.0235 40.7647 50.4752 39.9989 50.8777C39.2331 51.2901 38.4476 51.6534 37.6425 51.9872C36.8373 52.321 36.0224 52.6156 35.1977 52.8611C34.3631 53.1163 33.5285 53.3225 32.6743 53.4894C31.8201 53.6564 30.9659 53.784 30.1019 53.8724C29.2379 53.9607 28.3738 54 27.5 54C26.6262 54 25.7621 53.9607 24.8981 53.8724C24.0341 53.784 23.1799 53.6564 22.3257 53.4894C21.4715 53.3225 20.6369 53.1065 19.8023 52.8611C18.9678 52.6058 18.1528 52.321 17.3575 51.9872C16.5524 51.6534 15.7669 51.2803 15.0011 50.8777C14.2353 50.4654 13.4891 50.0235 12.7723 49.5424C12.0556 49.0613 11.3585 48.5409 10.681 47.9911C10.0035 47.4413 9.36532 46.862 8.75658 46.2434C8.13802 45.6249 7.55872 44.9867 7.00889 44.319C6.45905 43.6514 5.93868 42.9542 5.45758 42.2277C4.97647 41.5011 4.52482 40.7647 4.12227 39.9989C3.70989 39.2331 3.34661 38.4476 3.01278 37.6425C2.67895 36.8373 2.3844 36.0224 2.13894 35.1977C1.88366 34.3631 1.67747 33.5285 1.51056 32.6743C1.34364 31.8201 1.216 30.9659 1.12764 30.1019C1.03927 29.2379 1 28.3738 1 27.5C1 26.6262 1.03927 25.7621 1.12764 24.8981C1.216 24.0341 1.34364 23.1799 1.51056 22.3257C1.67747 21.4715 1.89348 20.6369 2.13894 19.8023C2.39422 18.9678 2.67895 18.1528 3.01278 17.3575C3.34661 16.5524 3.71971 15.767 4.12227 15.0011C4.53464 14.2353 4.97647 13.4891 5.45758 12.7723C5.93868 12.0458 6.45905 11.3585 7.00889 10.681C7.55872 10.0035 8.13802 9.36532 8.75658 8.75658C9.37514 8.13801 10.0133 7.55873 10.681 7.00889C11.3486 6.45906 12.0458 5.93868 12.7723 5.45758C13.4989 4.97647 14.2353 4.52482 15.0011 4.12227C15.7669 3.70989 16.5524 3.34661 17.3575 3.01278C18.1627 2.67896 18.9776 2.3844 19.8023 2.13894C20.6369 1.88366 21.4715 1.67747 22.3257 1.51056C23.1799 1.34365 24.0341 1.21601 24.8981 1.12764C25.7621 1.03927 26.6262 1 27.5 1V1Z" stroke="#EEEEEE"/>
<path d="M25 27H26L25.4959 26L25 27Z" fill="black"/>
<path d="M34.3371 29.4176C34.309 29.6587 34.1402 29.8517 33.9058 29.9192C33.6807 29.9771 33.4369 29.8902 33.2963 29.6973L31.9461 27.855L31.7492 28.0575V29.3501C31.7492 29.678 31.4866 29.9385 31.1678 29.9385C30.849 29.9385 30.5865 29.6684 30.5865 29.3501V25.2891C30.5865 24.9612 30.849 24.6911 31.1678 24.6911C31.4866 24.6911 31.7492 24.9612 31.7492 25.2891V26.5624L33.3619 24.9033C33.4463 24.8165 33.5588 24.7683 33.6807 24.7683C33.9808 24.7683 34.2246 25.0191 34.2527 25.3181C34.2621 25.4531 34.2152 25.5785 34.1308 25.675L32.8087 27.0254L34.2339 28.9642C34.3277 29.0896 34.3652 29.244 34.3465 29.408L34.3371 29.4176ZM29.8176 29.8613H27.9611C27.661 29.8613 27.4173 29.6202 27.4079 29.3211V25.2891C27.4173 24.9612 27.6798 24.7104 27.9986 24.7104C28.3174 24.7104 28.5706 24.9708 28.5893 25.2891V28.781H29.8176C30.0145 28.7713 30.2021 28.8678 30.3052 29.0414C30.4083 29.215 30.4083 29.4369 30.3052 29.6009C30.2021 29.7745 30.0145 29.871 29.8176 29.8613ZM26.9015 29.8613C26.789 29.9192 26.6578 29.9385 26.5359 29.9385C26.2921 29.9385 26.1139 29.842 26.0577 29.678L25.767 28.9064H24.0136L23.7229 29.678C23.6667 29.842 23.4791 29.9385 23.2447 29.9385C23.1228 29.9385 22.9916 29.9095 22.879 29.8613C22.7196 29.7841 22.5696 29.5816 22.7384 29.0221L24.1261 25.2795C24.248 24.9419 24.5481 24.7104 24.895 24.6911C25.2419 24.7104 25.542 24.9419 25.6639 25.2795L27.0422 29.0221C27.2203 29.5816 27.0609 29.7938 26.9109 29.871L26.9015 29.8613ZM22.0539 25.8583C22.0445 27.0061 22.0633 28.2119 22.0539 29.3404C22.0539 29.707 21.8476 29.8131 21.5757 29.9095C21.5476 29.9192 21.5101 29.9288 21.4819 29.9095C21.1725 29.842 20.9194 29.7263 20.91 29.3308C20.8912 28.2022 20.91 26.9965 20.91 25.8486C20.6474 25.839 20.2724 25.8583 20.0192 25.8486C19.6817 25.8293 19.4379 25.6075 19.4566 25.2698C19.4754 24.9419 19.6442 24.7007 20.0286 24.6911C20.9287 24.6814 22.0445 24.6814 22.9541 24.6911C23.3385 24.6911 23.5073 24.9322 23.526 25.2698C23.5354 25.5978 23.301 25.8197 22.9634 25.8486C22.7196 25.8583 22.3446 25.839 22.082 25.8486L22.0539 25.8583ZM27.0047 19C21.4819 19 17 22.6365 17 27.1122C17 30.006 18.8753 32.5525 21.6882 33.9898C21.5382 34.5299 20.7037 37.4912 20.6662 37.7227C20.6662 37.7227 20.6474 37.8964 20.76 37.9639C20.835 38.0025 20.9194 38.0121 20.9944 37.9832C21.3132 37.9349 24.6512 35.5235 25.2232 35.1087C25.8139 35.1955 26.4046 35.2341 26.9953 35.2341C32.5181 35.2341 37 31.5976 37 27.1219C37 22.6462 32.5181 19.0096 26.9953 19.0096L27.0047 19Z" fill="black"/>
</svg>
