<svg width="55" height="55" viewBox="0 0 55 55" fill="none" xmlns="http://www.w3.org/2000/svg">
<path d="M27.5 1C28.364 1 29.2379 1.03927 30.1019 1.12764C30.9659 1.21601 31.8201 1.34365 32.6743 1.51056C33.5285 1.67747 34.3631 1.89348 35.1977 2.13894C36.0322 2.39422 36.8472 2.67896 37.6425 3.01278C38.4476 3.34661 39.233 3.71971 39.9989 4.12227C40.7647 4.53464 41.5109 4.97647 42.2277 5.45758C42.9542 5.93868 43.6415 6.45906 44.319 7.00889C44.9867 7.55873 45.6347 8.13801 46.2434 8.75658C46.862 9.36532 47.4413 10.0133 47.9911 10.681C48.5409 11.3486 49.0613 12.0458 49.5424 12.7723C50.0235 13.4989 50.4752 14.2353 50.8777 15.0011C51.2901 15.767 51.6534 16.5524 51.9872 17.3575C52.321 18.1627 52.6156 18.9776 52.8611 19.8023C53.1163 20.6369 53.3225 21.4715 53.4894 22.3257C53.6564 23.1799 53.784 24.0341 53.8724 24.8981C53.9607 25.7621 54 26.6262 54 27.5C54 28.3738 53.9607 29.2379 53.8724 30.1019C53.784 30.9659 53.6564 31.8201 53.4894 32.6743C53.3225 33.5285 53.1065 34.3631 52.8611 35.1977C52.6058 36.0322 52.321 36.8472 51.9872 37.6425C51.6534 38.4476 51.2803 39.2331 50.8777 39.9989C50.4654 40.7647 50.0235 41.5109 49.5424 42.2277C49.0613 42.9542 48.5409 43.6514 47.9911 44.319C47.4413 44.9867 46.862 45.6347 46.2434 46.2434C45.6249 46.8522 44.9867 47.4413 44.319 47.9911C43.6514 48.5409 42.9542 49.0613 42.2277 49.5424C41.5011 50.0235 40.7647 50.4752 39.9989 50.8777C39.233 51.2901 38.4476 51.6534 37.6425 51.9872C36.8373 52.321 36.0224 52.6156 35.1977 52.8611C34.3631 53.1163 33.5285 53.3225 32.6743 53.4894C31.8201 53.6564 30.9659 53.784 30.1019 53.8724C29.2379 53.9607 28.3738 54 27.5 54C26.6262 54 25.7621 53.9607 24.8981 53.8724C24.0341 53.784 23.1799 53.6564 22.3257 53.4894C21.4715 53.3225 20.6369 53.1065 19.8023 52.8611C18.9678 52.6058 18.1528 52.321 17.3575 51.9872C16.5524 51.6534 15.767 51.2803 15.0011 50.8777C14.2353 50.4654 13.4891 50.0235 12.7723 49.5424C12.0458 49.0613 11.3585 48.5409 10.681 47.9911C10.0133 47.4413 9.36532 46.862 8.75658 46.2434C8.13801 45.6347 7.55872 44.9867 7.00889 44.319C6.45906 43.6514 5.93868 42.9542 5.45758 42.2277C4.97647 41.5011 4.52482 40.7647 4.12227 39.9989C3.70989 39.2331 3.34661 38.4476 3.01278 37.6425C2.67896 36.8373 2.3844 36.0224 2.13894 35.1977C1.88366 34.3631 1.67747 33.5285 1.51056 32.6743C1.34365 31.8201 1.21601 30.9659 1.12764 30.1019C1.03927 29.2379 1 28.3738 1 27.5C1 26.6262 1.03927 25.7621 1.12764 24.8981C1.21601 24.0341 1.34365 23.1799 1.51056 22.3257C1.67747 21.4715 1.89348 20.6369 2.13894 19.8023C2.39422 18.9678 2.67896 18.1528 3.01278 17.3575C3.34661 16.5524 3.71971 15.767 4.12227 15.0011C4.53464 14.2353 4.97647 13.4891 5.45758 12.7723C5.93868 12.0458 6.45906 11.3486 7.00889 10.681C7.55872 10.0133 8.13801 9.36532 8.75658 8.75658C9.37514 8.14783 10.0133 7.55873 10.681 7.00889C11.3486 6.45906 12.0458 5.93868 12.7723 5.45758C13.4989 4.97647 14.2353 4.52482 15.0011 4.12227C15.767 3.70989 16.5524 3.34661 17.3575 3.01278C18.1627 2.67896 18.9776 2.3844 19.8023 2.13894C20.6369 1.88366 21.4715 1.67747 22.3257 1.51056C23.1799 1.34365 24.0341 1.21601 24.8981 1.12764C25.7621 1.03927 26.6262 1 27.5 1Z" fill="#4FA42B"/>
<path d="M27.5 1C28.364 1 29.2379 1.03927 30.1019 1.12764C30.9659 1.21601 31.8201 1.34365 32.6743 1.51056C33.5285 1.67747 34.3631 1.89348 35.1977 2.13894C36.0322 2.39422 36.8472 2.67896 37.6425 3.01278C38.4476 3.34661 39.233 3.71971 39.9989 4.12227C40.7647 4.53464 41.5109 4.97647 42.2277 5.45758C42.9444 5.93868 43.6415 6.45906 44.319 7.00889C44.9965 7.55873 45.6347 8.13801 46.2434 8.75658C46.862 9.37514 47.4413 10.0133 47.9911 10.681C48.5409 11.3486 49.0613 12.0458 49.5424 12.7723C50.0235 13.4989 50.4752 14.2353 50.8777 15.0011C51.2901 15.767 51.6534 16.5524 51.9872 17.3575C52.321 18.1627 52.6156 18.9776 52.8611 19.8023C53.1163 20.6369 53.3225 21.4715 53.4894 22.3257C53.6564 23.1799 53.784 24.0341 53.8724 24.8981C53.9607 25.7621 54 26.6262 54 27.5C54 28.3738 53.9607 29.2379 53.8724 30.1019C53.784 30.9659 53.6564 31.8201 53.4894 32.6743C53.3225 33.5285 53.1065 34.3631 52.8611 35.1977C52.6058 36.0322 52.321 36.8472 51.9872 37.6425C51.6534 38.4476 51.2803 39.2331 50.8777 39.9989C50.4654 40.7647 50.0235 41.5109 49.5424 42.2277C49.0613 42.9542 48.5409 43.6415 47.9911 44.319C47.4413 44.9867 46.862 45.6347 46.2434 46.2434C45.6249 46.862 44.9867 47.4413 44.319 47.9911C43.6514 48.5409 42.9542 49.0613 42.2277 49.5424C41.5011 50.0235 40.7647 50.4752 39.9989 50.8777C39.233 51.2901 38.4476 51.6534 37.6425 51.9872C36.8373 52.321 36.0224 52.6156 35.1977 52.8611C34.3631 53.1163 33.5285 53.3225 32.6743 53.4894C31.8201 53.6564 30.9659 53.784 30.1019 53.8724C29.2379 53.9607 28.3738 54 27.5 54C26.6262 54 25.7621 53.9607 24.8981 53.8724C24.0341 53.784 23.1799 53.6564 22.3257 53.4894C21.4715 53.3225 20.6369 53.1065 19.8023 52.8611C18.9678 52.6058 18.1528 52.321 17.3575 51.9872C16.5524 51.6534 15.767 51.2803 15.0011 50.8777C14.2353 50.4654 13.4891 50.0235 12.7723 49.5424C12.0556 49.0613 11.3585 48.5409 10.681 47.9911C10.0035 47.4413 9.36532 46.862 8.75658 46.2434C8.13801 45.6249 7.55873 44.9867 7.00889 44.319C6.45906 43.6514 5.93868 42.9542 5.45758 42.2277C4.97647 41.5011 4.52482 40.7647 4.12227 39.9989C3.70989 39.2331 3.34661 38.4476 3.01278 37.6425C2.67896 36.8373 2.3844 36.0224 2.13894 35.1977C1.88366 34.3631 1.67747 33.5285 1.51056 32.6743C1.34365 31.8201 1.21601 30.9659 1.12764 30.1019C1.03927 29.2379 1 28.3738 1 27.5C1 26.6262 1.03927 25.7621 1.12764 24.8981C1.21601 24.0341 1.34365 23.1799 1.51056 22.3257C1.67747 21.4715 1.89348 20.6369 2.13894 19.8023C2.39422 18.9678 2.67896 18.1528 3.01278 17.3575C3.34661 16.5524 3.71971 15.767 4.12227 15.0011C4.53464 14.2353 4.97647 13.4891 5.45758 12.7723C5.93868 12.0458 6.45906 11.3585 7.00889 10.681C7.55873 10.0035 8.13801 9.36532 8.75658 8.75658C9.37514 8.13801 10.0133 7.55873 10.681 7.00889C11.3486 6.45906 12.0458 5.93868 12.7723 5.45758C13.4989 4.97647 14.2353 4.52482 15.0011 4.12227C15.767 3.70989 16.5524 3.34661 17.3575 3.01278C18.1627 2.67896 18.9776 2.3844 19.8023 2.13894C20.6369 1.88366 21.4715 1.67747 22.3257 1.51056C23.1799 1.34365 24.0341 1.21601 24.8981 1.12764C25.7621 1.03927 26.6262 1 27.5 1V1Z" stroke="#EEEEEE"/>
<path d="M17.0565 18L17 36.9325L24.27 36.9614V26.9503L30.7018 36.9325L38 37L37.9718 18.0579L30.6735 18.0289L30.6547 27.934L24.2982 18.0289L17.0565 18Z" fill="white"/>
</svg>
