<svg xmlns="http://www.w3.org/2000/svg" version="1.1" xmlns:xlink="http://www.w3.org/1999/xlink" xmlns:svgjs="http://svgjs.com/svgjs" width="100%" height="943"><svg version="1.1" id="SvgjsSvg1000" xmlns="http://www.w3.org/2000/svg" xmlns:xlink="http://www.w3.org/1999/xlink" x="0px" y="0px" width="100%" viewBox="0 0 701 943" enable-background="new 0 0 701 943" xml:space="preserve">
<path fill="#FEC37C" opacity="1.000000" stroke="none" d="
M220.651443,855.374634 
	C198.740768,845.321106 178.946869,832.616089 159.735291,818.692688 
	C139.593857,804.095215 121.754135,787.266235 107.069969,767.390198 
	C91.288803,746.029297 75.448235,724.577271 64.561668,700.072388 
	C53.037106,674.131531 43.856552,647.383667 40.046818,619.202942 
	C37.493252,600.314209 35.560551,581.207642 35.312984,562.173096 
	C34.962070,535.191895 39.222530,508.521423 45.468086,482.283295 
	C52.158745,454.175293 59.627510,426.252747 66.348381,398.151581 
	C70.644836,380.187347 73.630020,361.927643 72.886314,343.380554 
	C72.583641,335.832001 70.741302,328.326996 69.357498,320.846954 
	C68.544243,316.450928 67.009308,312.186188 66.236084,307.785583 
	C64.961639,300.532318 72.299110,292.752350 79.310387,294.827545 
	C87.749619,297.325500 95.884644,301.054810 103.857353,304.866058 
	C111.338905,308.442535 118.840912,312.245453 125.603027,316.990356 
	C134.284821,323.082336 142.283951,330.157104 150.492126,336.911865 
	C163.657532,347.746033 173.404999,361.303253 181.605728,376.107117 
	C182.856201,378.364441 184.790390,380.243011 186.932068,382.961578 
	C188.070328,381.126038 189.021744,380.033691 189.494980,378.763275 
	C198.372360,354.932465 208.134964,331.332977 212.388885,306.096985 
	C216.938751,279.105255 221.992020,252.117630 224.680450,224.916199 
	C227.226959,199.150757 227.924271,173.102463 227.697449,147.193771 
	C227.505875,125.311417 224.838425,103.449890 223.234787,81.581490 
	C222.931183,77.441437 222.463165,73.313660 222.095886,69.178009 
	C221.087952,57.828396 226.219284,52.416710 238.823517,55.770264 
	C253.552216,59.689064 267.943604,65.124062 282.130676,70.780731 
	C316.225098,84.374878 347.718750,102.675804 375.094666,127.162285 
	C387.770447,138.500229 399.212769,151.477646 409.767120,164.853683 
	C420.339386,178.252441 430.187744,192.483490 438.369385,207.435379 
	C446.868652,222.967758 452.991119,239.800690 460.153595,256.064636 
	C462.248077,260.820648 464.344604,265.575745 467.146942,271.935089 
	C471.096893,261.907135 475.328339,253.382736 477.823608,244.377274 
	C483.361420,224.391113 488.725159,204.302658 492.778503,183.980392 
	C495.056915,172.557053 505.764130,166.422104 516.238037,176.883682 
	C524.598450,185.234268 533.344177,193.354095 540.633423,202.590759 
	C557.105530,223.463593 573.340759,244.573502 588.574646,266.354645 
	C597.772644,279.505707 604.597717,294.290344 613.050537,307.994598 
	C626.764465,330.228333 636.045898,354.358612 644.514038,378.879578 
	C654.234131,407.025787 661.970703,435.653381 667.214111,465.026337 
	C673.520630,500.355164 676.933655,535.861267 675.756897,571.710083 
	C674.347595,614.643250 666.126221,656.145325 648.315125,695.514099 
	C640.262634,713.312866 631.480164,730.747498 619.428589,746.136230 
	C606.861450,762.183228 594.328369,778.461609 580.030945,792.907227 
	C548.142029,825.126526 510.867004,849.711365 467.870300,864.663940 
	C443.076355,873.286194 417.690338,880.293213 391.303314,882.012756 
	C373.562500,883.168884 355.714539,884.416626 337.989014,883.722229 
	C297.222137,882.124878 258.174438,872.469910 220.651443,855.374634 
M360.489716,842.026123 
	C373.650940,840.528870 386.899872,839.565552 399.954590,837.420166 
	C424.949219,833.312622 447.464142,822.188110 468.958374,809.632812 
	C489.919800,797.388672 508.586731,781.918701 523.456787,762.221924 
	C535.416809,746.379700 545.868164,729.772339 554.269653,711.747681 
	C565.743164,687.132080 571.515320,661.188599 572.842224,634.300842 
	C573.891235,613.044373 573.471130,591.692383 569.850708,570.648682 
	C566.932922,553.688965 563.869995,536.665405 559.297241,520.104736 
	C554.889221,504.140961 548.755493,488.623291 542.854614,473.109467 
	C534.788147,451.902435 524.812500,431.612396 511.073242,413.422516 
	C508.581726,410.123901 505.287109,406.352112 501.625244,405.249146 
	C494.684021,403.158447 489.112671,406.444031 485.518280,412.994293 
	C477.948486,426.789154 468.603638,439.036865 455.949066,448.649445 
	C452.918579,450.951385 451.021301,451.093506 448.516876,448.123596 
	C438.563293,436.319824 427.573608,425.278870 418.599701,412.783325 
	C400.499115,387.579498 387.896729,360.005432 386.808777,328.179535 
	C386.658783,323.791016 386.941010,318.790131 382.668488,315.345520 
	C377.419189,311.113373 371.367188,310.694336 365.684540,312.861053 
	C342.407043,321.736603 321.717773,335.359253 304.380066,352.832245 
	C292.836487,364.465881 283.941986,378.936340 274.951233,392.841461 
	C264.043793,409.710876 257.368866,428.558594 253.024612,448.148193 
	C250.495193,459.554108 248.437531,471.064667 246.005402,483.347229 
	C243.975571,481.001831 242.355042,479.024994 240.625397,477.148773 
	C232.816635,468.678314 222.904770,463.480774 212.829758,458.157349 
	C200.368561,451.573212 187.106018,449.884247 173.560623,449.089233 
	C168.476212,448.790833 163.082062,453.745544 163.047134,457.943512 
	C163.005798,462.910156 163.020706,467.966003 163.866760,472.834534 
	C166.365570,487.213470 166.091843,501.467163 164.401993,515.955688 
	C162.465088,532.562134 155.574539,547.428894 150.033051,562.796448 
	C144.449738,578.279846 138.382553,593.744995 137.257538,610.263367 
	C135.877472,630.526367 136.665466,650.800537 141.402054,670.736938 
	C145.553146,688.209045 150.970200,704.988037 160.076019,720.815491 
	C173.393936,743.964294 187.137039,766.562073 207.162170,784.643921 
	C210.979752,788.091064 215.037064,791.273376 218.993942,794.565552 
	C239.061157,811.262085 261.832153,823.241089 286.427612,831.435120 
	C310.042694,839.302490 334.488922,842.975708 360.489716,842.026123 
z"></path>
<path fill="#F26365" opacity="1.000000" stroke="none" d="
M359.991516,842.027588 
	C334.488922,842.975708 310.042694,839.302490 286.427612,831.435120 
	C261.832153,823.241089 239.061157,811.262085 218.993942,794.565552 
	C215.037064,791.273376 210.979752,788.091064 207.162170,784.643921 
	C187.137039,766.562073 173.393936,743.964294 160.076019,720.815491 
	C150.970200,704.988037 145.553146,688.209045 141.402054,670.736938 
	C136.665466,650.800537 135.877472,630.526367 137.257538,610.263367 
	C138.382553,593.744995 144.449738,578.279846 150.033051,562.796448 
	C155.574539,547.428894 162.465088,532.562134 164.401993,515.955688 
	C166.091843,501.467163 166.365570,487.213470 163.866760,472.834534 
	C163.020706,467.966003 163.005798,462.910156 163.047134,457.943512 
	C163.082062,453.745544 168.476212,448.790833 173.560623,449.089233 
	C187.106018,449.884247 200.368561,451.573212 212.829758,458.157349 
	C222.904770,463.480774 232.816635,468.678314 240.625397,477.148773 
	C242.355042,479.024994 243.975571,481.001831 246.005402,483.347229 
	C248.437531,471.064667 250.495193,459.554108 253.024612,448.148193 
	C257.368866,428.558594 264.043793,409.710876 274.951233,392.841461 
	C283.941986,378.936340 292.836487,364.465881 304.380066,352.832245 
	C321.717773,335.359253 342.407043,321.736603 365.684540,312.861053 
	C371.367188,310.694336 377.419189,311.113373 382.668488,315.345520 
	C386.941010,318.790131 386.658783,323.791016 386.808777,328.179535 
	C387.896729,360.005432 400.499115,387.579498 418.599701,412.783325 
	C427.573608,425.278870 438.563293,436.319824 448.516876,448.123596 
	C451.021301,451.093506 452.918579,450.951385 455.949066,448.649445 
	C468.603638,439.036865 477.948486,426.789154 485.518280,412.994293 
	C489.112671,406.444031 494.684021,403.158447 501.625244,405.249146 
	C505.287109,406.352112 508.581726,410.123901 511.073242,413.422516 
	C524.812500,431.612396 534.788147,451.902435 542.854614,473.109467 
	C548.755493,488.623291 554.889221,504.140961 559.297241,520.104736 
	C563.869995,536.665405 566.932922,553.688965 569.850708,570.648682 
	C573.471130,591.692383 573.891235,613.044373 572.842224,634.300842 
	C571.515320,661.188599 565.743164,687.132080 554.269653,711.747681 
	C545.868164,729.772339 535.416809,746.379700 523.456787,762.221924 
	C508.586731,781.918701 489.919800,797.388672 468.958374,809.632812 
	C447.464142,822.188110 424.949219,833.312622 399.954590,837.420166 
	C386.899872,839.565552 373.650940,840.528870 359.991516,842.027588 
M340.700836,674.917969 
	C351.021332,678.053406 361.446655,678.055908 371.565369,674.616272 
	C380.307098,671.644775 388.214752,666.935547 393.336578,658.817078 
	C396.603821,653.638184 393.344330,642.253845 387.556183,640.815857 
	C382.975739,639.677795 377.871826,640.224121 373.595734,643.862305 
	C361.170898,654.433777 353.194733,654.611206 339.573517,645.523438 
	C336.437805,643.431458 332.931183,641.739136 329.373108,640.501404 
	C327.548706,639.866821 324.848633,639.961609 323.204742,640.892700 
	C314.011597,646.100098 314.438599,657.065735 320.758057,662.585632 
	C326.386414,667.501831 333.479340,670.741394 340.700836,674.917969 
M451.925598,635.446777 
	C451.932495,641.568970 451.791290,647.695740 451.983032,653.812134 
	C452.234955,661.847473 457.191650,666.864502 464.624084,666.953308 
	C472.495392,667.047302 477.693756,662.153503 477.968811,654.008240 
	C478.182129,647.691467 478.182465,641.356079 477.970947,635.039185 
	C477.684631,626.488281 473.359100,622.153503 465.447327,622.056030 
	C456.985321,621.951782 452.719788,625.913452 451.925598,635.446777 
M256.133514,627.627136 
	C252.330261,622.626831 247.178024,620.742004 241.698975,622.346497 
	C236.981201,623.728088 233.267334,628.812317 233.144028,634.619995 
	C232.995544,641.612549 232.875351,648.624695 233.231995,655.603394 
	C233.548340,661.793457 238.609497,666.530090 244.527664,666.947998 
	C250.469543,667.367615 257.038300,663.440552 257.355225,657.511963 
	C257.873260,647.821228 256.873474,638.049316 256.133514,627.627136 
z"></path>
<path fill="#5A565B" opacity="1.000000" stroke="none" d="
M340.313354,674.819458 
	C333.479340,670.741394 326.386414,667.501831 320.758057,662.585632 
	C314.438599,657.065735 314.011597,646.100098 323.204742,640.892700 
	C324.848633,639.961609 327.548706,639.866821 329.373108,640.501404 
	C332.931183,641.739136 336.437805,643.431458 339.573517,645.523438 
	C353.194733,654.611206 361.170898,654.433777 373.595734,643.862305 
	C377.871826,640.224121 382.975739,639.677795 387.556183,640.815857 
	C393.344330,642.253845 396.603821,653.638184 393.336578,658.817078 
	C388.214752,666.935547 380.307098,671.644775 371.565369,674.616272 
	C361.446655,678.055908 351.021332,678.053406 340.313354,674.819458 
z"></path>
<path fill="#5A565B" opacity="1.000000" stroke="none" d="
M451.946442,635.011353 
	C452.719788,625.913452 456.985321,621.951782 465.447327,622.056030 
	C473.359100,622.153503 477.684631,626.488281 477.970947,635.039185 
	C478.182465,641.356079 478.182129,647.691467 477.968811,654.008240 
	C477.693756,662.153503 472.495392,667.047302 464.624084,666.953308 
	C457.191650,666.864502 452.234955,661.847473 451.983032,653.812134 
	C451.791290,647.695740 451.932495,641.568970 451.946442,635.011353 
z"></path>
<path fill="#5B575B" opacity="1.000000" stroke="none" d="
M256.323730,627.969360 
	C256.873474,638.049316 257.873260,647.821228 257.355225,657.511963 
	C257.038300,663.440552 250.469543,667.367615 244.527664,666.947998 
	C238.609497,666.530090 233.548340,661.793457 233.231995,655.603394 
	C232.875351,648.624695 232.995544,641.612549 233.144028,634.619995 
	C233.267334,628.812317 236.981201,623.728088 241.698975,622.346497 
	C247.178024,620.742004 252.330261,622.626831 256.323730,627.969360 
z"></path>
</svg><style>@media (prefers-color-scheme: light) { :root { filter: none; } }
</style></svg>